<svg width="24" height="24" viewBox="0 0 24 24" fill="none" xmlns="http://www.w3.org/2000/svg">
<mask id="mask0_131_2373" style="mask-type:alpha" maskUnits="userSpaceOnUse" x="0" y="0" width="24" height="24">
<rect width="24" height="24" fill="#D9D9D9"/>
</mask>
<g mask="url(#mask0_131_2373)">
<path d="M11.5 21.5V20.05C9.41667 19.85 7.696 19.0706 6.338 17.712C4.97934 16.354 4.2 14.6333 4 12.55H2.55V11.55H4C4.2 9.46664 4.97934 7.74564 6.338 6.38698C7.696 5.02898 9.41667 4.24998 11.5 4.04998V2.59998H12.5V4.04998C14.5833 4.24998 16.3043 5.02898 17.663 6.38698C19.021 7.74564 19.8 9.46664 20 11.55H21.45V12.55H20C19.8 14.6333 19.021 16.354 17.663 17.712C16.3043 19.0706 14.5833 19.85 12.5 20.05V21.5H11.5ZM12 19.05C13.9333 19.05 15.5833 18.3666 16.95 17C18.3167 15.6333 19 13.9833 19 12.05C19 10.1166 18.3167 8.46664 16.95 7.09998C15.5833 5.73331 13.9333 5.04998 12 5.04998C10.0667 5.04998 8.41667 5.73331 7.05 7.09998C5.68334 8.46664 5 10.1166 5 12.05C5 13.9833 5.68334 15.6333 7.05 17C8.41667 18.3666 10.0667 19.05 12 19.05Z" fill="white"/>
</g>
</svg>
